{
	"asset":{
		"generator":"Khronos glTF Blender I/O v4.0.43",
		"version":"2.0"
	},
	"extensionsUsed":[
		"KHR_materials_emissive_strength"
	],
	"scene":0,
	"scenes":[
		{
			"name":"Scene",
			"nodes":[
				0,
				1,
				2,
				3,
				4,
				5
			]
		}
	],
	"nodes":[
		{
			"mesh":0,
			"name":"left_wall"
		},
		{
			"mesh":1,
			"name":"box"
		},
		{
			"mesh":2,
			"name":"tall_box"
		},
		{
			"mesh":3,
			"name":"light_mesh"
		},
		{
			"mesh":4,
			"name":"body_wall"
		},
		{
			"mesh":5,
			"name":"right_wall"
		}
	],
	"materials":[
		{
			"doubleSided":true,
			"name":"red_mat",
			"pbrMetallicRoughness":{
				"baseColorFactor":[
					1,
					0,
					0,
					1
				],
				"metallicFactor":0,
				"roughnessFactor":0.800000011920929
			}
		},
		{
			"doubleSided":true,
			"name":"box_mat",
			"pbrMetallicRoughness":{
				"baseColorFactor":[
					0.800000011920929,
					0.800000011920929,
					0.800000011920929,
					1
				],
				"metallicFactor":0,
				"roughnessFactor":0.800000011920929
			}
		},
		{
			"doubleSided":true,
			"name":"tall_box_mat",
			"pbrMetallicRoughness":{
				"baseColorTexture":{
					"index":0
				},
				"metallicFactor":0,
				"roughnessFactor":0.800000011920929
			}
		},
		{
			"doubleSided":true,
			"emissiveFactor":[
				1,
				1,
				1
			],
			"extensions":{
				"KHR_materials_emissive_strength":{
					"emissiveStrength":5
				}
			},
			"name":"light_mat",
			"pbrMetallicRoughness":{
				"baseColorFactor":[
					0.800000011920929,
					0.800000011920929,
					0.800000011920929,
					1
				],
				"metallicFactor":0,
				"roughnessFactor":0.5
			}
		},
		{
			"doubleSided":true,
			"name":"white_mat",
			"pbrMetallicRoughness":{
				"baseColorFactor":[
					0.800000011920929,
					0.800000011920929,
					0.800000011920929,
					1
				],
				"metallicFactor":0,
				"roughnessFactor":0.800000011920929
			}
		},
		{
			"doubleSided":true,
			"name":"green_mat",
			"pbrMetallicRoughness":{
				"baseColorFactor":[
					0,
					1,
					0,
					1
				],
				"metallicFactor":0,
				"roughnessFactor":0.800000011920929
			}
		}
	],
	"meshes":[
		{
			"name":"Cube",
			"primitives":[
				{
					"attributes":{
						"POSITION":0,
						"NORMAL":1,
						"TEXCOORD_0":2
					},
					"indices":3,
					"material":0
				}
			]
		},
		{
			"name":"Cube.001",
			"primitives":[
				{
					"attributes":{
						"POSITION":4,
						"NORMAL":5,
						"TEXCOORD_0":6
					},
					"indices":7,
					"material":1
				}
			]
		},
		{
			"name":"Cube.002",
			"primitives":[
				{
					"attributes":{
						"POSITION":8,
						"NORMAL":9,
						"TEXCOORD_0":10
					},
					"indices":11,
					"material":2
				}
			]
		},
		{
			"name":"Plane",
			"primitives":[
				{
					"attributes":{
						"POSITION":12,
						"NORMAL":13,
						"TEXCOORD_0":14
					},
					"indices":15,
					"material":3
				}
			]
		},
		{
			"name":"Cube.003",
			"primitives":[
				{
					"attributes":{
						"POSITION":16,
						"NORMAL":17,
						"TEXCOORD_0":18
					},
					"indices":19,
					"material":4
				}
			]
		},
		{
			"name":"Cube.004",
			"primitives":[
				{
					"attributes":{
						"POSITION":20,
						"NORMAL":21,
						"TEXCOORD_0":22
					},
					"indices":15,
					"material":5
				}
			]
		}
	],
	"textures":[
		{
			"sampler":0,
			"source":0
		}
	],
	"images":[
		{
			"mimeType":"image/png",
			"name":"testwaifu",
			"uri":"textures/testwaifu.png"
		}
	],
	"accessors":[
		{
			"bufferView":0,
			"componentType":5126,
			"count":4,
			"max":[
				1.25,
				2.5,
				1.25
			],
			"min":[
				-1.25,
				0,
				1.25
			],
			"type":"VEC3"
		},
		{
			"bufferView":1,
			"componentType":5126,
			"count":4,
			"type":"VEC3"
		},
		{
			"bufferView":2,
			"componentType":5126,
			"count":4,
			"type":"VEC2"
		},
		{
			"bufferView":3,
			"componentType":5123,
			"count":6,
			"type":"SCALAR"
		},
		{
			"bufferView":4,
			"componentType":5126,
			"count":24,
			"max":[
				0.8850520849227905,
				0.75,
				0.013615459203720093
			],
			"min":[
				-0.03350648283958435,
				1.4901161193847656e-08,
				-0.9049431085586548
			],
			"type":"VEC3"
		},
		{
			"bufferView":5,
			"componentType":5126,
			"count":24,
			"type":"VEC3"
		},
		{
			"bufferView":6,
			"componentType":5126,
			"count":24,
			"type":"VEC2"
		},
		{
			"bufferView":7,
			"componentType":5123,
			"count":36,
			"type":"SCALAR"
		},
		{
			"bufferView":8,
			"componentType":5126,
			"count":24,
			"max":[
				0.13318634033203125,
				1.600000023841858,
				0.8724358677864075
			],
			"min":[
				-0.8466095924377441,
				2.9802322387695312e-08,
				-0.10736006498336792
			],
			"type":"VEC3"
		},
		{
			"bufferView":9,
			"componentType":5126,
			"count":24,
			"type":"VEC3"
		},
		{
			"bufferView":10,
			"componentType":5126,
			"count":24,
			"type":"VEC2"
		},
		{
			"bufferView":11,
			"componentType":5123,
			"count":36,
			"type":"SCALAR"
		},
		{
			"bufferView":12,
			"componentType":5126,
			"count":4,
			"max":[
				0.401705265045166,
				2.493896722793579,
				0.401705265045166
			],
			"min":[
				-0.401705265045166,
				2.493896722793579,
				-0.401705265045166
			],
			"type":"VEC3"
		},
		{
			"bufferView":13,
			"componentType":5126,
			"count":4,
			"type":"VEC3"
		},
		{
			"bufferView":14,
			"componentType":5126,
			"count":4,
			"type":"VEC2"
		},
		{
			"bufferView":15,
			"componentType":5123,
			"count":6,
			"type":"SCALAR"
		},
		{
			"bufferView":16,
			"componentType":5126,
			"count":12,
			"max":[
				1.25,
				2.5,
				1.25
			],
			"min":[
				-1.25,
				0,
				-1.25
			],
			"type":"VEC3"
		},
		{
			"bufferView":17,
			"componentType":5126,
			"count":12,
			"type":"VEC3"
		},
		{
			"bufferView":18,
			"componentType":5126,
			"count":12,
			"type":"VEC2"
		},
		{
			"bufferView":19,
			"componentType":5123,
			"count":18,
			"type":"SCALAR"
		},
		{
			"bufferView":20,
			"componentType":5126,
			"count":4,
			"max":[
				1.25,
				2.5,
				-1.25
			],
			"min":[
				-1.25,
				0,
				-1.25
			],
			"type":"VEC3"
		},
		{
			"bufferView":21,
			"componentType":5126,
			"count":4,
			"type":"VEC3"
		},
		{
			"bufferView":22,
			"componentType":5126,
			"count":4,
			"type":"VEC2"
		}
	],
	"bufferViews":[
		{
			"buffer":0,
			"byteLength":48,
			"byteOffset":0,
			"target":34962
		},
		{
			"buffer":0,
			"byteLength":48,
			"byteOffset":48,
			"target":34962
		},
		{
			"buffer":0,
			"byteLength":32,
			"byteOffset":96,
			"target":34962
		},
		{
			"buffer":0,
			"byteLength":12,
			"byteOffset":128,
			"target":34963
		},
		{
			"buffer":0,
			"byteLength":288,
			"byteOffset":140,
			"target":34962
		},
		{
			"buffer":0,
			"byteLength":288,
			"byteOffset":428,
			"target":34962
		},
		{
			"buffer":0,
			"byteLength":192,
			"byteOffset":716,
			"target":34962
		},
		{
			"buffer":0,
			"byteLength":72,
			"byteOffset":908,
			"target":34963
		},
		{
			"buffer":0,
			"byteLength":288,
			"byteOffset":980,
			"target":34962
		},
		{
			"buffer":0,
			"byteLength":288,
			"byteOffset":1268,
			"target":34962
		},
		{
			"buffer":0,
			"byteLength":192,
			"byteOffset":1556,
			"target":34962
		},
		{
			"buffer":0,
			"byteLength":72,
			"byteOffset":1748,
			"target":34963
		},
		{
			"buffer":0,
			"byteLength":48,
			"byteOffset":1820,
			"target":34962
		},
		{
			"buffer":0,
			"byteLength":48,
			"byteOffset":1868,
			"target":34962
		},
		{
			"buffer":0,
			"byteLength":32,
			"byteOffset":1916,
			"target":34962
		},
		{
			"buffer":0,
			"byteLength":12,
			"byteOffset":1948,
			"target":34963
		},
		{
			"buffer":0,
			"byteLength":144,
			"byteOffset":1960,
			"target":34962
		},
		{
			"buffer":0,
			"byteLength":144,
			"byteOffset":2104,
			"target":34962
		},
		{
			"buffer":0,
			"byteLength":96,
			"byteOffset":2248,
			"target":34962
		},
		{
			"buffer":0,
			"byteLength":36,
			"byteOffset":2344,
			"target":34963
		},
		{
			"buffer":0,
			"byteLength":48,
			"byteOffset":2380,
			"target":34962
		},
		{
			"buffer":0,
			"byteLength":48,
			"byteOffset":2428,
			"target":34962
		},
		{
			"buffer":0,
			"byteLength":32,
			"byteOffset":2476,
			"target":34962
		}
	],
	"samplers":[
		{
			"magFilter":9729,
			"minFilter":9987
		}
	],
	"buffers":[
		{
			"byteLength":2508,
			"uri":"cornell_box.bin"
		}
	]
}
